HIERARCHY
ROOT hip
{
  OFFSET 0 0 0
  CHANNELS 6 Xposition Yposition Zposition Zrotation Yrotation Xrotation
  JOINT abdomen
  {
    OFFSET 0 20.6881 -0.73152
    CHANNELS 3 Zrotation Xrotation Yrotation
    JOINT chest
    {
      OFFSET 0 11.7043 -0.48768
      CHANNELS 3 Zrotation Xrotation Yrotation
      JOINT neck
      {
        OFFSET 0 22.1894 -2.19456
        CHANNELS 3 Zrotation Xrotation Yrotation
        JOINT head
        {
          OFFSET -0.24384 7.07133 1.2192
          CHANNELS 3 Zrotation Xrotation Yrotation
          JOINT leftEye
          {
            OFFSET 4.14528 8.04674 8.04672
            CHANNELS 3 Zrotation Xrotation Yrotation
            End Site
            {
              OFFSET 1 0 0
            }
          }
          JOINT rightEye
          {
            OFFSET -3.6576 8.04674 8.04672
            CHANNELS 3 Zrotation Xrotation Yrotation
            End Site
            {
              OFFSET 1 0 0
            }
          }
        }
      }
      JOINT rCollar
      {
        OFFSET -2.68224 19.2634 -4.8768
        CHANNELS 3 Zrotation Xrotation Yrotation
        JOINT rShldr
        {
          OFFSET -8.77824 -1.95073 1.46304
          CHANNELS 3 Zrotation Xrotation Yrotation
          JOINT rForeArm
          {
            OFFSET -28.1742 -1.7115 0.48768
            CHANNELS 3 Zrotation Xrotation Yrotation
            JOINT rHand
            {
              OFFSET -22.5879 0.773209 7.07136
              CHANNELS 3 Zrotation Xrotation Yrotation
              JOINT rThumb1
              {
                OFFSET -1.2192 -0.487915 3.41376
                CHANNELS 3 Zrotation Xrotation Yrotation
                JOINT rThumb2
                {
                  OFFSET -3.37035 -0.52449 3.41376
                  CHANNELS 3 Zrotation Xrotation Yrotation
                  End Site
                  {
                    OFFSET -1.78271 -1.18214 1.43049
                  }
                }
              }
              JOINT rIndex1
              {
                OFFSET -7.75947 0.938293 5.60832
                CHANNELS 3 Zrotation Xrotation Yrotation
                JOINT rIndex2
                {
                  OFFSET -2.54057 -0.884171 1.56538
                  CHANNELS 3 Zrotation Xrotation Yrotation
                  End Site
                  {
                    OFFSET -1.62519 -0.234802 1.16502
                  }
                }
              }
              JOINT rMid1
              {
                OFFSET -8.24714 1.18213 3.41376
                CHANNELS 3 Zrotation Xrotation Yrotation
                JOINT rMid2
                {
                  OFFSET -3.10165 -0.590103 1.0647
                  CHANNELS 3 Zrotation Xrotation Yrotation
                  End Site
                  {
                    OFFSET -2.48547 -0.328903 0.83742
                  }
                }
              }
              JOINT rRing1
              {
                OFFSET -8.82822 0.546677 1.51678
                CHANNELS 3 Zrotation Xrotation Yrotation
                JOINT rRing2
                {
                  OFFSET -2.60934 -0.819778 -0.0198488
                  CHANNELS 3 Zrotation Xrotation Yrotation
                  End Site
                  {
                    OFFSET -2.33842 -0.294052 0.168128
                  }
                }
              }
              JOINT rPinky1
              {
                OFFSET -8.27202 -0.0477905 -0.4584
                CHANNELS 3 Zrotation Xrotation Yrotation
                JOINT rPinky2
                {
                  OFFSET -1.82734 -0.647385 -0.700984
                  CHANNELS 3 Zrotation Xrotation Yrotation
                  End Site
                  {
                    OFFSET -1.69225 -0.51767 -0.607171
                  }
                }
              }
            }
          }
        }
      }
      JOINT lCollar
      {
        OFFSET 2.68224 19.2634 -4.8768
        CHANNELS 3 Zrotation Xrotation Yrotation
        JOINT lShldr
        {
          OFFSET 8.77824 -1.95073 1.46304
          CHANNELS 3 Zrotation Xrotation Yrotation
          JOINT lForeArm
          {
            OFFSET 28.1742 -1.7115 0.48768
            CHANNELS 3 Zrotation Xrotation Yrotation
            JOINT lHand
            {
              OFFSET 22.5879 0.773209 7.07136
              CHANNELS 3 Zrotation Xrotation Yrotation
              JOINT lThumb1
              {
                OFFSET 1.2192 -0.487915 3.41376
                CHANNELS 3 Zrotation Xrotation Yrotation
                JOINT lThumb2
                {
                  OFFSET 3.37035 -0.52449 3.41376
                  CHANNELS 3 Zrotation Xrotation Yrotation
                  End Site
                  {
                    OFFSET 1.78271 -1.18214 1.43049
                  }
                }
              }
              JOINT lIndex1
              {
                OFFSET 7.75947 0.938293 5.60832
                CHANNELS 3 Zrotation Xrotation Yrotation
                JOINT lIndex2
                {
                  OFFSET 2.54057 -0.884171 1.56538
                  CHANNELS 3 Zrotation Xrotation Yrotation
                  End Site
                  {
                    OFFSET 1.62519 -0.234802 1.16502
                  }
                }
              }
              JOINT lMid1
              {
                OFFSET 8.24714 1.18213 3.41376
                CHANNELS 3 Zrotation Xrotation Yrotation
                JOINT lMid2
                {
                  OFFSET 3.10165 -0.590103 1.0647
                  CHANNELS 3 Zrotation Xrotation Yrotation
                  End Site
                  {
                    OFFSET 2.48547 -0.328903 0.83742
                  }
                }
              }
              JOINT lRing1
              {
                OFFSET 8.82822 0.546677 1.51678
                CHANNELS 3 Zrotation Xrotation Yrotation
                JOINT lRing2
                {
                  OFFSET 2.60934 -0.819778 -0.0198488
                  CHANNELS 3 Zrotation Xrotation Yrotation
                  End Site
                  {
                    OFFSET 2.33842 -0.294052 0.168128
                  }
                }
              }
              JOINT lPinky1
              {
                OFFSET 8.27202 -0.0477905 -0.4584
                CHANNELS 3 Zrotation Xrotation Yrotation
                JOINT lPinky2
                {
                  OFFSET 1.82734 -0.647385 -0.700984
                  CHANNELS 3 Zrotation Xrotation Yrotation
                  End Site
                  {
                    OFFSET 1.69225 -0.51767 -0.607171
                  }
                }
              }
            }
          }
        }
      }
    }
  }
  JOINT rButtock
  {
    OFFSET -8.77824 4.35084 1.2192
    CHANNELS 3 Zrotation Xrotation Yrotation
    JOINT rThigh
    {
      OFFSET 0 -1.70687 -2.19456
      CHANNELS 3 Zrotation Xrotation Yrotation
      JOINT rShin
      {
        OFFSET 0 -36.8199 0.73152
        CHANNELS 3 Zrotation Xrotation Yrotation
        JOINT rFoot
        {
          OFFSET 0.73152 -45.1104 -5.12064
          CHANNELS 3 Zrotation Xrotation Yrotation
          End Site
          {
            OFFSET -1.1221 -3.69964 12.103
          }
        }
      }
    }
  }
  JOINT lButtock
  {
    OFFSET 8.77824 4.35084 1.2192
    CHANNELS 3 Zrotation Xrotation Yrotation
    JOINT lThigh
    {
      OFFSET 0 -1.70687 -2.19456
      CHANNELS 3 Zrotation Xrotation Yrotation
      JOINT lShin
      {
        OFFSET 0 -36.8199 0.73152
        CHANNELS 3 Zrotation Xrotation Yrotation
        JOINT lFoot
        {
          OFFSET -0.73152 -45.1104 -5.12064
          CHANNELS 3 Zrotation Xrotation Yrotation
          End Site
          {
            OFFSET 1.1221 -3.69964 12.103
          }
        }
      }
    }
  }
}
MOTION
Frames:	7
Frame Time:	0.00833333
-4.90492 84.2564 37.0177 0.0 0.0 0.0 -1.24151 -0.00398119 -0.0340789 -0.342494 -0.00249265 -0.0593272 3.22837e-14 -7.95139e-16 -2.60905e-16 9.67957e-14 3.18055e-15 -8.35517e-16 -0.0 0.0 0.0 -0.0 0.0 0.0 1.62003e-14 3.06719e-17 4.96962e-17 3.40776e-13 8.32411e-16 -5.96354e-16 5.83995e-12 -1.72307e-12 -1.17681e-13 6.68406e-11 1.87079e-12 -4.0075e-13 1.57664e-10 3.14947e-13 -1.14182e-12 2.72274e-10 5.40694e-13 -1.98785e-12 1.57668e-10 3.15272e-13 -1.15454e-12 7.73091 5.47488 0.417314 1.57664e-10 3.15173e-13 -1.14818e-12 2.90554 0.965183 0.102902 1.57672e-10 3.15272e-13 -1.14579e-12 10.2786 0.731801 0.0259123 1.57657e-10 3.16863e-13 -1.13228e-12 2.22167 -0.733487 -0.20892 1.62026e-14 3.06719e-17 -2.48481e-16 3.36484e-13 6.52262e-16 -2.5842e-15 5.84407e-12 1.76799e-12 -1.01778e-13 6.68451e-11 -1.62713e-12 -4.16653e-13 1.57685e-10 3.02943e-13 -1.13864e-12 2.72321e-10 5.21611e-13 -1.97592e-12 1.5768e-10 3.04936e-13 -1.1291e-12 -7.73091 5.47488 -0.417314 1.57685e-10 3.03345e-13 -1.145e-12 -2.90554 0.965183 -0.102902 1.57674e-10 3.02948e-13 -1.145e-12 -10.2786 0.731801 -0.0259123 1.57693e-10 3.04936e-13 -1.15772e-12 -2.22167 -0.733487 0.20892 -2.03217e-16 0.0 -3.88251e-19 -0.453832 -1.92099 -0.00952725 -0.00915566 -2.07857 -0.0755527 -0.487461 3.99699 0.136654 2.03217e-16 0.0 3.88251e-19 -1.43727 -5.97115 0.129662 -0.00126424 5.25795 -0.0454139 0.507818 0.710744 -0.0722744
-6.5956 83.9277 35.6614 -7.8617 -0.4107 2.5494 1.20588 0.379236 0.449444 -1.33817 -0.789904 0.0750814 0.196364 2.62092 -0.424443 0.994085 1.10683 -0.890454 -0.0 0.0 0.0 -0.0 0.0 0.0 -2.29525e-14 8.92314e-15 5.0395e-15 23.6295 6.96336 -3.90368 -6.27532 -3.42954 9.09218 0.0843745 6.4509 0.885994 3.19845e-10 -3.8953e-10 3.04116e-10 5.58137e-10 -6.73758e-10 5.21099e-10 3.19849e-10 -3.89529e-10 3.04104e-10 7.73091 5.47488 0.417314 3.19844e-10 -3.8953e-10 3.0411e-10 2.90554 0.965183 0.102902 3.19852e-10 -3.8953e-10 3.04113e-10 10.2786 0.731801 0.0259123 3.19838e-10 -3.89529e-10 3.04127e-10 2.22167 -0.733487 -0.20892 -2.29559e-14 8.91865e-15 4.80383e-15 -22.528 7.44208 2.37792 5.87041 -3.10626 -8.64221 -0.0129981 2.52972 -0.354278 3.78003e-10 3.22212e-10 2.51946e-10 6.54797e-10 5.57249e-10 4.33539e-10 3.77999e-10 3.22214e-10 2.51955e-10 -7.73091 5.47488 -0.417314 3.78004e-10 3.22212e-10 2.51942e-10 -2.90554 0.965183 -0.102902 3.77993e-10 3.22212e-10 2.51942e-10 -10.2786 0.731801 -0.0259123 3.78009e-10 3.22213e-10 2.51932e-10 -2.22167 -0.733487 0.20892 -2.03217e-16 0.0 -3.88251e-19 0.278206 -0.760629 -0.255839 -0.00502238 -1.42487 -0.0478745 -0.524474 -0.726411 -2.68299 2.03217e-16 0.0 3.88251e-19 3.34996 -7.73826 -0.847329 -0.00953354 10.7028 -0.173822 0.744292 -4.27089 2.76506
-6.59458 83.9247 35.6561 -7.8583 -0.396 2.5744 3.7866 0.780803 0.95876 -2.38714 -1.62172 0.216638 0.445676 5.39145 -0.875455 2.08414 2.27617 -1.83162 -0.0 0.0 0.0 -0.0 0.0 0.0 -7.29032e-14 1.59953e-14 1.07716e-14 49.6668 14.2163 -8.22512 -11.7384 -6.76557 18.8041 -0.0487409 13.2646 1.86064 5.2391e-10 -8.75373e-10 6.91064e-10 9.17808e-10 -1.51424e-09 1.1844e-09 5.23913e-10 -8.75372e-10 6.91053e-10 7.73091 5.47488 0.417314 5.23907e-10 -8.75373e-10 6.91057e-10 2.90554 0.965183 0.102902 5.23915e-10 -8.75373e-10 6.91062e-10 10.2786 0.731801 0.0259123 5.23902e-10 -8.75372e-10 6.91075e-10 2.22167 -0.733487 -0.20892 -7.29101e-14 1.59858e-14 1.0607e-14 -47.0384 15.2621 5.02979 11.068 -6.15364 -17.8572 0.00742119 5.20847 -0.731778 6.72596e-10 7.24811e-10 5.60287e-10 1.16597e-09 1.25341e-09 9.63935e-10 6.72593e-10 7.24813e-10 5.60294e-10 -7.73091 5.47488 -0.417314 6.72596e-10 7.24812e-10 5.60285e-10 -2.90554 0.965183 -0.102902 6.72586e-10 7.24812e-10 5.60285e-10 -10.2786 0.731801 -0.0259123 6.72599e-10 7.24812e-10 5.60277e-10 -2.22167 -0.733487 0.20892 -2.03217e-16 0.0 -3.88251e-19 1.06112 0.469148 -0.514798 -0.00133956 -0.734125 -0.0186367 -1.07029 -5.69291 -5.69192 2.03217e-16 0.0 3.88251e-19 8.34219 -9.59837 -1.89024 0.00939238 16.4573 -0.316501 1.53669 -9.4996 5.82958
-6.59988 83.9219 35.6499 -7.8857 -0.3786 2.6025 6.08125 1.14536 1.41674 -3.31842 -2.36468 0.34417 0.706515 7.86102 -1.28407 3.08557 3.31727 -2.67535 -0.0 0.0 0.0 -0.0 0.0 0.0 -1.01258e-13 2.67081e-14 1.50191e-14 73.8752 20.4892 -12.4217 -15.6625 -9.25396 27.6167 -0.37558 19.3336 2.79912 6.44208e-10 -1.16922e-09 9.14633e-10 1.12986e-09 -2.02236e-09 1.56727e-09 6.44211e-10 -1.16922e-09 9.14622e-10 7.73091 5.47488 0.417314 6.44204e-10 -1.16922e-09 9.14625e-10 2.90554 0.965183 0.102902 6.44212e-10 -1.16922e-09 9.14631e-10 10.2786 0.731801 0.0259123 6.44199e-10 -1.16922e-09 9.14645e-10 2.22167 -0.733487 -0.20892 -1.01273e-13 2.66946e-14 1.49085e-14 -69.5574 22.1661 7.64139 14.8812 -8.47236 -26.1954 0.0555581 7.58799 -1.07118 8.1864e-10 9.66029e-10 7.58116e-10 1.41975e-09 1.6707e-09 1.30457e-09 8.18638e-10 9.66031e-10 7.58123e-10 -7.73091 5.47488 -0.417314 8.1864e-10 9.6603e-10 7.58117e-10 -2.90554 0.965183 -0.102902 8.1863e-10 9.6603e-10 7.58116e-10 -10.2786 0.731801 -0.0259123 8.18641e-10 9.6603e-10 7.5811e-10 -2.22167 -0.733487 0.20892 -2.03217e-16 0.0 -3.88251e-19 1.77222 1.55993 -0.748683 0.00135019 -0.117476 0.00742689 -2.00338 -10.0674 -8.45203 2.03217e-16 0.0 3.88251e-19 12.7404 -11.2616 -2.83131 0.0524044 21.5921 -0.453794 2.72955 -14.0924 8.67982
-6.60624 83.9181 35.6401 -7.9272 -0.3399 2.6503 7.67405 1.41767 1.74617 -3.96318 -2.88557 0.436378 0.913227 9.57984 -1.57649 3.7927 4.04085 -3.27169 -0.0 0.0 0.0 -0.0 0.0 0.0 -7.5623e-14 4.65226e-14 1.55549e-14 91.3516 24.6933 -15.6288 -17.9271 -10.6085 33.8567 -0.7329 23.5592 3.51339 5.55089e-10 -9.83081e-10 7.29753e-10 9.72874e-10 -1.69954e-09 1.24909e-09 5.55091e-10 -9.83079e-10 7.29743e-10 7.73091 5.47488 0.417314 5.55084e-10 -9.83081e-10 7.29746e-10 2.90554 0.965183 0.102902 5.55093e-10 -9.83081e-10 7.29752e-10 10.2786 0.731801 0.0259123 5.55081e-10 -9.8308e-10 7.29766e-10 2.22167 -0.733487 -0.20892 -7.5657e-14 4.65078e-14 1.54555e-14 -85.6645 26.932 9.67173 17.1249 -9.77577 -32.0853 0.105422 9.22058 -1.30729 5.93312e-10 8.03793e-10 6.79669e-10 1.03005e-09 1.39083e-09 1.17079e-09 5.9331e-10 8.03794e-10 6.79675e-10 -7.73091 5.47488 -0.417314 5.93312e-10 8.03793e-10 6.79672e-10 -2.90554 0.965183 -0.102902 5.93304e-10 8.03793e-10 6.7967e-10 -10.2786 0.731801 -0.0259123 5.93313e-10 8.03793e-10 6.79665e-10 -2.22167 -0.733487 0.20892 -2.03217e-16 0.0 -3.88251e-19 2.28276 2.30338 -0.919427 0.00289201 0.313922 0.0255833 -2.90919 -13.0704 -10.4422 2.03217e-16 0.0 3.88251e-19 15.7833 -12.4417 -3.49398 0.0986359 25.1785 -0.557535 3.84356 -17.2321 10.7607
-6.60914 83.9154 35.6326 -7.9567 -0.292 2.6879 8.29505 1.56095 1.9008 -4.20879 -3.09456 0.480575 1.0119 10.2484 -1.70136 4.04464 4.31805 -3.52373 -0.0 0.0 0.0 -0.0 0.0 0.0 5.80771e-14 8.70508e-14 9.68182e-15 98.336 26.2804 -16.9581 -18.728 -11.046 36.3378 -0.905754 25.2248 3.81268 5.67429e-11 1.39474e-10 -2.5837e-10 9.47309e-11 2.44453e-10 -4.47985e-10 5.67439e-11 1.39476e-10 -2.58377e-10 7.73091 5.47488 0.417314 5.67369e-11 1.39474e-10 -2.58374e-10 2.90554 0.965183 0.102902 5.67464e-11 1.39474e-10 -2.5837e-10 10.2786 0.731801 0.0259123 5.67362e-11 1.39474e-10 -2.58357e-10 2.22167 -0.733487 -0.20892 5.80007e-14 8.70391e-14 9.52109e-15 -92.0549 28.8325 10.5149 17.9245 -10.2075 -34.4181 0.127112 9.8014 -1.39212 -3.76887e-10 -1.52329e-10 6.89237e-11 -6.50094e-10 -2.60767e-10 1.23243e-10 -3.7689e-10 -1.5233e-10 6.89299e-11 -7.73091 5.47488 -0.417314 -3.76888e-10 -1.52331e-10 6.89285e-11 -2.90554 0.965183 -0.102902 -3.76893e-10 -1.52331e-10 6.89261e-11 -10.2786 0.731801 -0.0259123 -3.76885e-10 -1.52331e-10 6.89203e-11 -2.22167 -0.733487 0.20892 -2.03217e-16 0.0 -3.88251e-19 2.50832 2.55901 -1.00047 0.00341738 0.48633 0.0326637 -3.31919 -14.238 -11.2309 2.03217e-16 0.0 3.88251e-19 16.9939 -12.9539 -3.75052 0.120841 26.5994 -0.600636 4.34059 -18.4375 11.5919
-6.61028 83.914 35.6292 -7.9706 -0.2626 2.7075 8.22321 1.61214 1.93028 -4.17022 -3.08084 0.490342 1.02412 10.167 -1.7043 3.96431 4.27725 -3.52885 -0.0 0.0 0.0 -0.0 0.0 0.0 2.6742e-13 1.41995e-13 -7.11277e-16 97.5566 26.0868 -16.7992 -18.6585 -11.0189 36.1029 -0.887586 25.0656 3.78335 -7.28383e-10 1.91831e-09 -1.80922e-09 -1.28878e-09 3.32462e-09 -3.11105e-09 -7.28384e-10 1.91831e-09 -1.80922e-09 7.73091 5.47488 0.417314 -7.2839e-10 1.9183e-09 -1.80922e-09 2.90554 0.965183 0.102902 -7.2838e-10 1.91831e-09 -1.80922e-09 10.2786 0.731801 0.0259123 -7.28388e-10 1.9183e-09 -1.80921e-09 2.22167 -0.733487 -0.20892 2.67285e-13 1.41989e-13 -9.84605e-16 -91.3077 28.7226 10.3919 17.8483 -10.1727 -34.1828 0.121885 9.6315 -1.3674 -1.86842e-09 -1.6646e-09 -9.15105e-10 -3.23343e-09 -2.87332e-09 -1.56512e-09 -1.86843e-09 -1.66461e-09 -9.15098e-10 -7.73091 5.47488 -0.417314 -1.86843e-09 -1.66461e-09 -9.15099e-10 -2.90554 0.965183 -0.102902 -1.86843e-09 -1.66461e-09 -9.15102e-10 -10.2786 0.731801 -0.0259123 -1.86842e-09 -1.66461e-09 -9.1511e-10 -2.22167 -0.733487 0.20892 -2.03217e-16 0.0 -3.88251e-19 2.52777 2.46633 -1.01731 0.00335481 0.47373 0.0318319 -3.26552 -14.1198 -11.1242 2.03217e-16 0.0 3.88251e-19 16.9097 -12.9905 -3.71339 0.11851 26.4733 -0.5963 4.2744 -18.291 11.4805
